<?xml version="1.0" encoding="utf-8"?>
<!-- Generator: Adobe Illustrator 25.4.1, SVG Export Plug-In . SVG Version: 6.00 Build 0)  -->
<svg version="1.1" id="Layer_1" xmlns="http://www.w3.org/2000/svg" xmlns:xlink="http://www.w3.org/1999/xlink" x="0px" y="0px"
	 viewBox="0 0 283.46 283.46" style="enable-background:new 0 0 283.46 283.46;" xml:space="preserve">
<g>
	<path d="M184.76,228c-20.96,0-41.92-0.13-62.88,0.07c-7.11,0.07-12.61-4.73-12.49-12.51c0.44-30.54,23.94-58.04,54.46-62.15
		c15.67-2.11,31.61-2.56,47.2,0.94c25.15,5.64,44.72,27.1,48.52,52.54c0.46,3.07,0.79,6.18,0.88,9.28
		c0.19,7.02-4.51,11.81-11.55,11.82C227.53,228.02,206.15,228,184.76,228z"/>
	<path d="M87.86,141.65c-24.01-0.02-43.1-19.3-43.07-43.48c0.04-23.56,19.52-42.82,43.3-42.83c23.53-0.01,43.14,19.68,43.03,43.19
		C131.01,122.44,111.72,141.67,87.86,141.65z"/>
	<path d="M184.94,141.65c-24.03-0.01-43.14-19.27-43.11-43.43c0.03-23.58,19.46-42.85,43.25-42.88
		c23.53-0.03,43.16,19.62,43.08,43.14C228.07,122.39,208.77,141.67,184.94,141.65z"/>
	<path d="M112.9,156.34C94.33,176.59,85.08,199.9,89.2,228c-0.49,0-1.38,0-2.27,0c-16.34,0-32.69-0.31-49.02,0.11
		c-9.99,0.26-15.26-4.26-14.9-15.08c0.58-17.53,6.54-32.5,19.38-44.53c10.81-10.13,23.77-15.43,38.51-16.05
		c10-0.42,20.05-0.54,29.72,2.84c0.63,0.22,1.27,0.42,1.9,0.66C112.67,156,112.75,156.17,112.9,156.34z"/>
</g>
</svg>
