<?xml version="1.0" encoding="utf-8"?>
<!-- Generator: Adobe Illustrator 25.4.1, SVG Export Plug-In . SVG Version: 6.00 Build 0)  -->
<svg version="1.1" id="Layer_1" xmlns="http://www.w3.org/2000/svg" xmlns:xlink="http://www.w3.org/1999/xlink" x="0px" y="0px"
	 viewBox="0 0 283.46 283.46" style="enable-background:new 0 0 283.46 283.46;" xml:space="preserve">
<g>
	<path d="M211.38,39.02H72.09c-18.23,0-33.07,14.83-33.07,33.07v91.48c0,18.03,14.67,32.87,32.69,33.07l56.22,0.71
		c0.03,0,0.06,0,0.09,0c3.83,0,6.96-3.08,7.01-6.93c0.05-3.87-3.05-7.05-6.93-7.1l-56.23-0.71c-10.38-0.11-18.82-8.66-18.82-19.04
		V72.09c0-10.5,8.54-19.04,19.04-19.04h139.29c10.5,0,19.04,8.54,19.04,19.04v93.19c0,10.5-8.54,19.04-19.04,19.04H175.3
		c-2.61,0-5.01,1.45-6.22,3.77l-24.05,46.1c-1.79,3.43-0.46,7.67,2.98,9.46c1.04,0.54,2.15,0.79,3.24,0.79
		c2.53,0,4.98-1.37,6.23-3.77l22.08-42.32h31.82c18.23,0,33.07-14.83,33.07-33.07V72.09C244.44,53.86,229.61,39.02,211.38,39.02z"/>
	<path d="M125.47,96.14c0-7.9-6.4-14.3-14.3-14.3c-7.9,0-14.3,6.4-14.3,14.3s6.4,14.3,14.3,14.3
		C119.07,110.44,125.47,104.04,125.47,96.14z"/>
	<path d="M172.29,81.83c-7.9,0-14.3,6.4-14.3,14.3s6.4,14.3,14.3,14.3c7.9,0,14.3-6.4,14.3-14.3S180.19,81.83,172.29,81.83z"/>
	<path d="M181.15,144.39c1.47-2.12,0.94-5.04-1.19-6.5c-2.13-1.48-5.04-0.94-6.51,1.19c-8.26,11.95-21.93,18.46-35.75,17.05
		c-16.58-1.73-25.96-14.47-27.67-17.01c-1.44-2.14-4.35-2.7-6.49-1.26c-2.14,1.45-2.7,4.35-1.26,6.49
		c2.98,4.41,14.26,18.97,34.46,21.07c1.59,0.17,3.17,0.25,4.75,0.25C157.01,165.67,171.89,157.79,181.15,144.39z"/>
</g>
</svg>
