<?xml version="1.0" encoding="utf-8"?>
<!-- Generator: Adobe Illustrator 25.4.1, SVG Export Plug-In . SVG Version: 6.00 Build 0)  -->
<svg version="1.1" id="Layer_1" xmlns="http://www.w3.org/2000/svg" xmlns:xlink="http://www.w3.org/1999/xlink" x="0px" y="0px"
	 viewBox="0 0 283.46 283.46" style="enable-background:new 0 0 283.46 283.46;" xml:space="preserve">
<g>
	<path d="M80.13,239.68c-0.7-0.26-1.38-0.54-2.09-0.78c-5.83-1.99-9.61-7.15-9.73-13.28c-0.01-0.32,0-0.64,0-0.96
		c0-53.98,0-107.97,0-161.95c0-9.71,5.88-16.88,15.28-18.62c1.24-0.23,2.54-0.2,3.81-0.2c36.14-0.01,72.28,0.14,108.41-0.11
		c10.11-0.07,19.37,7.42,19.34,19.31c-0.14,44.81-0.06,89.61-0.06,134.42c0,8.92,0,17.85,0,26.77c0,8-3.66,12.82-11.39,15.07
		c-0.16,0.05-0.29,0.22-0.43,0.33c-1.78,0-3.57,0-5.35,0c-4.45-1.14-7.56-4.16-10.67-7.3c-12.75-12.84-25.56-25.6-38.36-38.38
		c-4.63-4.62-9.75-4.61-14.37,0.01c-12.75,12.74-25.53,25.45-38.23,38.25c-3.16,3.18-6.3,6.26-10.81,7.43
		C83.7,239.68,81.92,239.68,80.13,239.68z M79.85,143.43c0,26.7,0,53.4,0,80.1c0,0.64-0.04,1.28,0.03,1.91
		c0.23,2.36,2.4,3.48,4.43,2.24c0.64-0.39,1.17-0.98,1.71-1.52c13.44-13.42,27.07-26.65,40.23-40.33c8.37-8.7,22.56-8.66,30.84-0.07
		c13.18,13.67,26.79,26.92,40.22,40.34c0.58,0.58,1.16,1.22,1.86,1.64c1.88,1.13,3.98,0.11,4.31-2.05c0.11-0.69,0.07-1.4,0.07-2.1
		c0-53.34,0-106.68,0-160.01c0-5.9-2.33-8.24-8.19-8.24c-35.69,0-71.37,0-107.06,0c-6.16,0-8.45,2.26-8.45,8.37
		C79.85,90.28,79.85,116.85,79.85,143.43z"/>
</g>
</svg>
