<?xml version="1.0" encoding="utf-8"?>
<!-- Generator: Adobe Illustrator 25.4.1, SVG Export Plug-In . SVG Version: 6.00 Build 0)  -->
<svg version="1.1" id="Layer_1" xmlns="http://www.w3.org/2000/svg" xmlns:xlink="http://www.w3.org/1999/xlink" x="0px" y="0px"
	 viewBox="0 0 283.46 283.46" style="enable-background:new 0 0 283.46 283.46;" xml:space="preserve">
<path d="M232.91,107.53c-28.72-26.29-57.41-52.62-86.15-78.89c-1.77-1.61-3.89-2.84-5.84-4.25c-1.12,0-2.23,0-3.35,0
	c-1.43,0.96-3.04,1.72-4.25,2.9c-27.63,26.74-55.21,53.54-82.82,80.3c-2.09,2.02-3.05,4.32-3.05,7.25
	c0.04,38.45,0.03,76.91,0.03,115.36c0,5.77,2.85,8.62,8.6,8.62c16.09,0,32.18,0,48.27,0v0.01h77.36v0c15.27,0,30.54,0.01,45.81,0
	c5.61,0,8.49-2.88,8.5-8.52c0.01-38.52-0.01-77.05,0.03-115.57C236.06,111.78,235.06,109.49,232.91,107.53z M159.11,223.76h-34.72
	c0.01-14.75,0-29.51,0-44.26c0-0.87,0-1.73,0-2.56c11.77,0,23.18,0,34.71,0c0,1.07,0,1.97,0,2.87
	C159.1,194.47,159.1,209.12,159.11,223.76z M221.2,221.33c0,0.75,0,1.5,0,2.41c-15.8,0-31.39,0-47.19,0c0-0.89,0-1.71,0-2.53
	c0-16.82,0-33.63,0-50.45c0-6.1-2.84-8.92-8.98-8.93c-15.49-0.01-30.98-0.01-46.47,0c-6.27,0-9.05,2.79-9.05,9.07
	c0,16.75,0,33.49,0,50.24c0,0.82,0,1.65,0,2.63c-1.72,0-3.43,0-5.14,0c-14.08,0-27.97,0-42.05,0c0-0.8,0-1.48,0-2.16
	c0-34.26-0.01-68.52,0.05-102.78c0-1.04,0.49-2.36,1.22-3.07c24.94-24.3,49.93-48.55,74.91-72.8c0.25-0.24,0.51-0.46,0.88-0.78
	c0.49,0.39,0.98,0.75,1.42,1.15c26.29,24.09,52.56,48.19,78.88,72.25c1.14,1.04,1.56,2.08,1.56,3.6
	C221.19,153.23,221.2,187.28,221.2,221.33z"/>
</svg>
