<?xml version="1.0" encoding="utf-8"?>
<!-- Generator: Adobe Illustrator 25.4.1, SVG Export Plug-In . SVG Version: 6.00 Build 0)  -->
<svg version="1.1" id="Layer_1" xmlns="http://www.w3.org/2000/svg" xmlns:xlink="http://www.w3.org/1999/xlink" x="0px" y="0px"
	 viewBox="0 0 283.46 283.46" style="enable-background:new 0 0 283.46 283.46;" xml:space="preserve">
<g>
	<path d="M87.18,54.08c0-2.51-0.03-4.7,0.01-6.88c0.06-4.23,3.19-7.31,7.35-7.28c4,0.03,7.1,3.15,7.17,7.24
		c0.04,2.19,0.01,4.38,0.01,6.73c26.67,0,53.2,0,80.02,0c0-2.17-0.02-4.34,0-6.51c0.04-4.29,3.06-7.43,7.17-7.46
		c4.23-0.03,7.31,3.11,7.35,7.51c0.02,2.11,0,4.22,0,6.64c3.76,0,7.37-0.05,10.97,0.01c6.79,0.12,13.21,1.73,18.94,5.43
		c11.09,7.16,17.26,17.34,17.31,30.62c0.14,39.16,0.08,78.33,0.04,117.49c-0.02,19.6-16.3,35.88-35.9,35.89
		c-43.93,0.04-87.87,0.04-131.81,0c-19.59-0.02-35.87-16.31-35.89-35.9c-0.03-39.01-0.02-78.02-0.01-117.03
		c0.01-19.97,15.87-36.11,35.85-36.49C79.47,54.02,83.17,54.08,87.18,54.08z M229,112.69c-58.32,0-116.36,0-174.56,0
		c0,0.68,0,1.2,0,1.72c0,30.75-0.04,61.5,0.02,92.25c0.03,12.93,9.63,22.33,22.72,22.34c43.02,0.03,86.04,0.02,129.06-0.02
		c2.1,0,4.25-0.24,6.28-0.76c10.04-2.58,16.46-11.05,16.47-21.76c0.04-30.67,0.01-61.35,0.01-92.02C229,113.92,229,113.4,229,112.69
		z M196.25,69.18c0,2.04,0.02,4.15,0,6.27c-0.04,4.34-3.26,7.64-7.36,7.57c-4.02-0.07-7.12-3.32-7.16-7.55c-0.02-2.17,0-4.34,0-6.58
		c-26.8,0-53.34,0-80.02,0c0,2.35,0.02,4.54-0.01,6.73c-0.06,4.18-3.28,7.43-7.3,7.4c-4.02-0.03-7.17-3.29-7.21-7.49
		c-0.02-2.18,0-4.36,0-6.68c-4.13,0-8.05-0.15-11.97,0.03c-13.1,0.58-23.29,11.91-20.42,28.8c57.98,0,115.97,0,174.14,0
		c0-2.89,0.17-5.68-0.03-8.44c-0.75-10.1-7.53-18.21-17.47-19.9C206.6,68.5,201.51,69.18,196.25,69.18z"/>
	<path d="M131.74,183.45c0.7-0.67,1.3-1.22,1.88-1.79c12.91-12.91,25.8-25.82,38.72-38.72c4.42-4.41,11.06-3.1,12.71,2.53
		c0.9,3.06-0.13,5.58-2.36,7.8c-11.11,11.06-22.18,22.16-33.27,33.25c-3.96,3.96-7.92,7.93-11.89,11.89
		c-3.81,3.79-7.84,3.77-11.69-0.07c-8.36-8.35-16.72-16.7-25.06-25.07c-3.39-3.4-3.63-7.85-0.63-10.88
		c2.98-3.02,7.54-2.84,10.9,0.49c6.29,6.24,12.54,12.52,18.81,18.78C130.45,182.24,131.05,182.79,131.74,183.45z"/>
</g>
</svg>
