<?xml version="1.0" encoding="utf-8"?>
<!-- Generator: Adobe Illustrator 25.4.1, SVG Export Plug-In . SVG Version: 6.00 Build 0)  -->
<svg version="1.1" id="Layer_1" xmlns="http://www.w3.org/2000/svg" xmlns:xlink="http://www.w3.org/1999/xlink" x="0px" y="0px"
	 viewBox="0 0 283.46 283.46" style="enable-background:new 0 0 283.46 283.46;" xml:space="preserve">
<g>
	<path d="M123.39,237.55c-0.87-0.29-1.76-0.55-2.61-0.89c-5.48-2.22-8.68-6.29-9.69-12.09c-0.55-3.19-1.01-6.39-1.56-9.58
		c-1.24-7.07-8.12-11.14-14.94-8.8c-3.12,1.07-6.17,2.33-9.26,3.46c-7.62,2.8-14.85,0.24-18.94-6.77
		c-5.11-8.77-10.19-17.56-15.23-26.37c-4.11-7.17-2.73-14.66,3.6-19.93c2.49-2.08,5.04-4.08,7.48-6.21
		c5.54-4.84,5.54-12.47-0.01-17.29c-2.54-2.21-5.19-4.28-7.77-6.45c-5.87-4.93-7.34-12.54-3.56-19.21
		c5.16-9.1,10.39-18.16,15.68-27.18c3.85-6.56,11.05-9.12,18.23-6.61c3.11,1.09,6.17,2.31,9.27,3.43
		c7.46,2.68,14.27-1.37,15.52-9.16c0.56-3.5,1.09-7.01,1.85-10.47c1.46-6.7,7.44-11.47,14.28-11.49
		c10.48-0.03,20.95-0.02,31.43-0.01c7.88,0.01,13.96,5.19,15.21,12.94c0.52,3.19,1.01,6.39,1.56,9.58
		c1.21,7.01,7.99,11.12,14.74,8.87c3.19-1.06,6.29-2.35,9.44-3.51c7.63-2.8,14.87-0.26,18.95,6.74
		c5.14,8.82,10.25,17.67,15.31,26.54c4.03,7.06,2.61,14.54-3.66,19.77c-2.49,2.08-5.04,4.08-7.48,6.21
		c-5.56,4.86-5.57,12.43-0.02,17.29c2.53,2.22,5.19,4.29,7.77,6.45c5.88,4.92,7.37,12.52,3.59,19.21
		c-5.15,9.11-10.39,18.16-15.68,27.19c-3.85,6.55-11.05,9.12-18.23,6.62c-3.17-1.1-6.29-2.36-9.45-3.49
		c-7.33-2.61-14.13,1.49-15.35,9.21c-0.49,3.13-0.94,6.28-1.58,9.39c-1.33,6.44-5.1,10.65-11.59,12.27
		c-0.23,0.06-0.43,0.23-0.64,0.34C147.84,237.55,135.62,237.55,123.39,237.55z M219.57,168.53c-2.44-2.01-4.78-3.96-7.15-5.88
		c-13.89-11.28-13.87-30.57,0.04-41.86c2.36-1.92,4.7-3.87,7.12-5.87c-5.27-9.13-10.5-18.16-15.71-27.17
		c-3.69,1.35-7.1,2.7-10.58,3.86c-15.11,5.03-30.95-4.24-33.99-19.88c-0.69-3.58-1.27-7.18-1.89-10.73c-10.57,0-20.96,0-31.37,0
		c-0.7,4.03-1.18,8-2.11,11.86c-3.71,15.43-19.73,23.91-34.68,18.46c-3.2-1.17-6.38-2.36-9.65-3.58
		c-5.28,9.14-10.47,18.14-15.7,27.2c2.44,2.01,4.79,3.96,7.15,5.89c13.88,11.32,13.86,30.53-0.04,41.87
		c-2.36,1.92-4.69,3.87-7.11,5.86c5.28,9.13,10.5,18.17,15.72,27.2c3.46-1.3,6.65-2.53,9.86-3.69c15.27-5.5,31.57,3.75,34.69,19.7
		c0.7,3.58,1.27,7.18,1.89,10.71c10.58,0,20.97,0,31.4,0c0.52-3.12,1.06-6.12,1.52-9.13c0.99-6.46,3.69-12.04,8.71-16.27
		c8.19-6.92,17.39-8.38,27.43-4.61c2.89,1.09,5.79,2.17,8.77,3.28C209.15,186.59,214.34,177.59,219.57,168.53z"/>
	<path d="M141.67,178.73c-20.31-0.03-36.99-16.79-36.93-37.11c0.05-20.31,16.83-36.97,37.15-36.89
		c20.24,0.08,36.85,16.76,36.84,37.01C178.72,162.06,161.99,178.76,141.67,178.73z M119.82,141.79
		c0.05,12.07,9.89,21.87,21.92,21.86c12.06-0.02,21.86-9.81,21.9-21.88c0.04-12.1-9.96-22.06-22.02-21.95
		C129.53,119.93,119.77,129.77,119.82,141.79z"/>
</g>
</svg>
